<svg xmlns="http://www.w3.org/2000/svg" xmlns:xlink="http://www.w3.org/1999/xlink" width="1920" height="742" viewBox="0 0 1920 742">
  <defs>
    <clipPath id="clip-FOOTER">
      <rect width="100%" height="742"/>
    </clipPath>
  </defs>
  <g id="FOOTER" clip-path="url(#clip-FOOTER)">
    <path id="Trazado_9913" data-name="Trazado 9913" d="M-.318,253s8.276-4.836,84.526,4.219c7.653.946,30.045,4.584,48.266,8.93,25.173,6,48.634,12.23,68.526,4.133,81.646-32.917,163.908-108.16,252.479-147.6,33.166-14.769,68.661-26.783,104.2-28.216,21.368-.862,45.685,5.13,68.38,8.607,83.79,12.837,77.018,26.993,186,12.534,40.761-10.469,92.35-34.355,126.656-47.891C1024.907,33.7,1102.431,1.293,1181.828,8.47c101.873,9.21,227.833,44.393,297.833,59.239C1879.662,152.543,1920,35.277,1920,35.277V630H0Z" transform="translate(0.318 113.165)" fill="#7e50c2"/>
    <g id="Grupo_3189" data-name="Grupo 3189" transform="translate(1405.209 -25.165) rotate(84)">
      <g id="Grupo_2745" data-name="Grupo 2745">
        <path id="Trazado_8493" data-name="Trazado 8493" d="M211.916,733.847c-23.173-39.838-20.694-91.631.694-132.455,7.231-13.8,16.474-26.642,21.763-41.3,4.473-12.39,5.958-25.691,5.988-38.864a184.141,184.141,0,0,0-26.2-94.767c-26.589-44.2-88.584-85.535-90.776-141.037" transform="matrix(0.978, 0.208, -0.208, 0.978, 124.445, -11.647)" fill="none" stroke="#4a3a59" stroke-miterlimit="10" stroke-width="0.944"/>
        <g id="Grupo_2741" data-name="Grupo 2741" transform="translate(79.552 167.811)">
          <path id="Trazado_8494" data-name="Trazado 8494" d="M223.17,266.21c7.048,33.425-.383,67.263-24.481,92.4a100.353,100.353,0,0,1-12.632,11.153c-2.258,1.675-9.861,8.409-12.7,7.97,3.316.515,6.078.789,8.959,2.558a6.24,6.24,0,0,1,2.586,2.5c1.323,2.872-2.02,6.114-5.178,5.977s-5.794-2.352-8.159-4.45c1.835,4.275.086,19.268-7.267,13.415a11.279,11.279,0,0,1-4.126-9.718q-3.879,3.793-7.755,7.585a3.438,3.438,0,0,1-1.692,1.1c-2.306.4-2.657-3.3-1.612-5.4a24.961,24.961,0,0,1,12.516-11.74c-27.235-4.052-51.769-21.9-65.222-45.92-15.4-27.5-16.8-61.389-2.838-89.341a70.7,70.7,0,0,1,49.038-37.9c15.447-3.139,29.806-1.079,43.966,5.946,14.479,7.185,25.859,22.832,31.706,37.536A99.853,99.853,0,0,1,223.17,266.21Z" transform="translate(-83.921 -204.973)" fill="#ff78cc"/>
          <path id="Trazado_8495" data-name="Trazado 8495" d="M186.477,240.609a35.338,35.338,0,0,1-12.891,11.3,4.948,4.948,0,0,0-1.837,1.288c-1.037,1.389-.255,3.324.351,4.946a20.094,20.094,0,0,1-22.956,26.69c.835,3.061,1.641,6.457.213,9.291s-6.173,3.882-7.631,1.065c-2.411,11.265-3.082,23.059-.459,34.275s8.752,21.835,18.083,28.59,21.99,9.222,32.767,5.153c-2.6,3.92-13.27,15.375-18.761,14.53,3.316.515,6.078.789,8.959,2.558a6.24,6.24,0,0,1,2.586,2.5c1.323,2.872-2.02,6.114-5.178,5.977s-5.794-2.352-8.159-4.45c1.835,4.275.086,19.268-7.267,13.415a11.279,11.279,0,0,1-4.126-9.718q-3.879,3.793-7.755,7.585a3.438,3.438,0,0,1-1.692,1.1c-2.306.4-2.657-3.3-1.612-5.4a24.961,24.961,0,0,1,12.516-11.74c-27.235-4.052-51.769-21.9-65.222-45.92-15.4-27.5-16.8-61.389-2.838-89.341a70.7,70.7,0,0,1,49.038-37.9c15.447-3.139,29.806-1.079,43.966,5.946,6.436,3.194,6.756,10.379,5.142,16.823A34.858,34.858,0,0,1,186.477,240.609Z" transform="translate(-83.921 -204.973)" fill="#80b3e3" opacity="0.27" style="mix-blend-mode: multiply;isolation: isolate"/>
        </g>
        <path id="Trazado_8496" data-name="Trazado 8496" d="M107.075,225.713a313.457,313.457,0,0,0,58.691,207.092c20.248,27.755,45.051,52.081,63.875,80.82s31.506,64,23.49,97.4c-5.3,22.077-18.975,41.006-30.829,60.366-13.309,21.74-24.786,45.251-27.982,70.541a116.842,116.842,0,0,0,27.6,90.337" transform="matrix(0.978, 0.208, -0.208, 0.978, 119.549, -80.081)" fill="none" stroke="#4a3a59" stroke-miterlimit="10" stroke-width="0.944"/>
        <g id="Grupo_2743" data-name="Grupo 2743" transform="translate(30.471)">
          <path id="Trazado_8497" data-name="Trazado 8497" d="M176.915,349.081c8.632,1.677,26.333-15.233,31.784-20.757a108.391,108.391,0,0,0,21.376-31.915c12.491-27.831,17.86-57.909,14.035-88.637-3.53-28.346-17.233-57.717-40.81-74.8-19.872-14.4-46.272-18.422-70.242-13.145-37.795,8.319-63.791,34.084-77.38,69.348-12.175,31.593-9.493,68.066,4.885,98.721a114.34,114.34,0,0,0,16.419,25.9,118.89,118.89,0,0,0,21.866,19.537c18.319,12.945,39.844,21.942,62.243,23.162a18.111,18.111,0,0,0-8.58,15.062,3.663,3.663,0,0,0,.473,2.146c1.389,2,4.483.2,6.013-1.694a74.628,74.628,0,0,0,8.178-12.462,23.05,23.05,0,0,0,10.983,22.306,34.617,34.617,0,0,0-2.769-24.78,29.8,29.8,0,0,0,18.184,10.968c1.492.263,3.3.292,4.208-.917,1.029-1.37.2-3.32-.757-4.74A31.888,31.888,0,0,0,176.915,349.081Z" transform="translate(-47.962 -117.602)" fill="#ffda2a"/>
          <g id="Grupo_2742" data-name="Grupo 2742" transform="translate(24.998 55.473)">
            <path id="Trazado_8498" data-name="Trazado 8498" d="M79.33,215.31c-7.972-16.284-4.446-38.626,12.59-47.5a31.608,31.608,0,0,1,31.912,2.007,33.781,33.781,0,0,1,13.968,25.7c1.4,25.952-31.22,47.888-52.52,28.018A28.031,28.031,0,0,1,79.33,215.31Z" transform="translate(-42.818 -121.399)" fill="#ff4200"/>
            <path id="Trazado_8499" data-name="Trazado 8499" d="M98.661,169.39a25.236,25.236,0,0,1,9.114-16.884" transform="translate(-16.991 -134.543)" fill="#ff4200" stroke="#ffbe28" stroke-miterlimit="10" stroke-width="3"/>
            <path id="Trazado_8500" data-name="Trazado 8500" d="M106.573,176.326a237.227,237.227,0,0,1,22.077-16.091" transform="translate(-8.256 -126.01)" fill="#ff4200" stroke="#ffbe28" stroke-miterlimit="10" stroke-width="3"/>
            <path id="Trazado_8501" data-name="Trazado 8501" d="M88.166,180.839a198.307,198.307,0,0,1-5.144-36.871" transform="translate(-34.255 -143.968)" fill="#ff4200" stroke="#ffbe28" stroke-miterlimit="10" stroke-width="3"/>
            <path id="Trazado_8502" data-name="Trazado 8502" d="M70.586,158.6q5.693,8.035,11.391,16.07" transform="translate(-47.983 -127.813)" fill="#ff4200" stroke="#ffbe28" stroke-miterlimit="10" stroke-width="3"/>
            <path id="Trazado_8503" data-name="Trazado 8503" d="M59.843,176.53a37.4,37.4,0,0,0,24.044,1.652" transform="translate(-59.843 -108.022)" fill="#ff4200" stroke="#ffbe28" stroke-miterlimit="10" stroke-width="3"/>
            <path id="Trazado_8504" data-name="Trazado 8504" d="M85.338,191.855a198.158,198.158,0,0,0-18.121,26.3" transform="translate(-51.703 -91.104)" fill="#ff4200" stroke="#ffbe28" stroke-miterlimit="10" stroke-width="3"/>
            <path id="Trazado_8505" data-name="Trazado 8505" d="M82.071,200.634a68.747,68.747,0,0,0,4.494,26.846" transform="translate(-35.349 -81.413)" fill="#ff4200" stroke="#ffbe28" stroke-miterlimit="10" stroke-width="3"/>
            <path id="Trazado_8506" data-name="Trazado 8506" d="M98.023,199.332a93.7,93.7,0,0,0,11.628,22.348" transform="translate(-17.695 -82.85)" fill="#ff4200" stroke="#ffbe28" stroke-miterlimit="10" stroke-width="3"/>
            <path id="Trazado_8507" data-name="Trazado 8507" d="M107.819,189.169a124.077,124.077,0,0,0,17.774,17.791" transform="translate(-6.881 -94.069)" fill="#ff4200" stroke="#ffbe28" stroke-miterlimit="10" stroke-width="3"/>
            <path id="Trazado_8508" data-name="Trazado 8508" d="M112.286,179.19a37.9,37.9,0,0,1,14.73-.282" transform="translate(-1.949 -106.047)" fill="#ff4200" stroke="#ffbe28" stroke-miterlimit="10" stroke-width="3"/>
          </g>
          <path id="Trazado_8509" data-name="Trazado 8509" d="M153.92,349.081c8.632,1.677,26.333-15.233,31.784-20.757a108.391,108.391,0,0,0,21.376-31.915c12.491-27.831,17.86-57.909,14.035-88.637-3.53-28.346-17.233-57.717-40.81-74.8-19.872-14.4-46.272-18.422-70.242-13.145-9.67,2.127-21.548,5.294-29.362,11.727,9.531-3.341,19.611-6.728,29.537-4.864,6.392,1.2,12.215,4.53,17.33,8.546,12.3,9.655,20.993,23.4,26.253,38.123s7.252,30.438,7.774,46.066c.623,18.719-.865,37.723-6.9,55.453s-16.905,34.183-32.384,44.732-35.79,14.608-53.518,8.559c21.687,14.246,42.485,26.867,69.306,28.329a18.111,18.111,0,0,0-8.58,15.062,3.663,3.663,0,0,0,.473,2.146c1.389,2,4.484.2,6.013-1.694a74.624,74.624,0,0,0,8.178-12.462,23.05,23.05,0,0,0,10.983,22.306,34.617,34.617,0,0,0-2.769-24.78,29.8,29.8,0,0,0,18.184,10.968c1.492.263,3.3.292,4.208-.917,1.029-1.37.2-3.32-.757-4.74A31.888,31.888,0,0,0,153.92,349.081Z" transform="translate(-24.967 -117.602)" fill="#ffda2a" opacity="0.54"/>
        </g>
        <path id="Trazado_8510" data-name="Trazado 8510" d="M253.882,712.148c-10.16-37.418,3.4-82.093,12.645-118.491,15.782-62.125,11-116.164-33.926-164.685-23.625-25.519-52.232-45.8-78.738-68.313s-51.622-48.241-64.982-80.349" transform="matrix(0.966, 0.259, -0.259, 0.966, 121.156, -23.871)" fill="none" stroke="#4a3a59" stroke-miterlimit="10" stroke-width="0.944"/>
        <g id="Grupo_2744" data-name="Grupo 2744" transform="translate(0 172.406)">
          <path id="Trazado_8511" data-name="Trazado 8511" d="M80.732,210.926C25,230.04,20.917,304.385,56.16,344.294a104.532,104.532,0,0,0,30.854,23.96,91.674,91.674,0,0,0,65.824,6.89c-4.324,4.917-8.925,10.629-8.348,17.149a2.592,2.592,0,0,0,.762,1.868c.966.764,2.375.025,3.295-.793a18.926,18.926,0,0,0,6.152-11.837,17.98,17.98,0,0,0,4.437,8.567c1.479,1.582,3.69,2.969,5.706,2.18,2.266-.886,2.775-3.911,2.319-6.3a14.57,14.57,0,0,0-3.8-7.332,16.658,16.658,0,0,0,14.877-5.022,3.763,3.763,0,0,0,1.054-1.769c.431-2.293-2.674-3.467-5.005-3.484a36.531,36.531,0,0,0-12.678,2.177c34.38-40.484,27.881-113.431-12.211-147.332C131.209,207.833,103.111,203.249,80.732,210.926Z" transform="translate(-33.479 -207.274)" fill="#ff4200"/>
          <path id="Trazado_8512" data-name="Trazado 8512" d="M62.235,210.926c-7.4,2.537-13.223,4.355-11.78,13.665a30.308,30.308,0,0,0,4.355,10.642c7.9,13.288,19.285,24.711,33.217,31.408s30.467,8.4,45.085,3.373a40.425,40.425,0,0,0-3.92,17.623c.021,2.733.576,5.883,2.952,7.233,3.095,1.759,6.813-.709,9.5-3.04.846,5.424.419,10.955-.055,16.425-1.269,14.675-2.956,29.678-9.474,42.889s-18.862,24.469-33.541,25.7a79.777,79.777,0,0,0,35.765-1.7c-4.324,4.917-8.925,10.629-8.348,17.149a2.592,2.592,0,0,0,.762,1.868c.966.764,2.375.025,3.295-.793a18.926,18.926,0,0,0,6.152-11.837,17.981,17.981,0,0,0,4.437,8.567c1.479,1.582,3.69,2.969,5.706,2.18,2.266-.886,2.775-3.911,2.319-6.3a14.57,14.57,0,0,0-3.8-7.332,16.658,16.658,0,0,0,14.877-5.022,3.764,3.764,0,0,0,1.054-1.769c.431-2.293-2.674-3.467-5.005-3.484a36.531,36.531,0,0,0-12.678,2.177C177.495,330.063,171,257.116,130.9,223.215,112.712,207.833,84.614,203.249,62.235,210.926Z" transform="translate(-14.982 -207.274)" fill="#c574ab" opacity="0.4"/>
          <path id="Trazado_8513" data-name="Trazado 8513" d="M87.691,323.5a239.463,239.463,0,0,1-16.463-41.34,144.594,144.594,0,0,1-26.821,4.473,98.229,98.229,0,0,1,23.04-18.959A306.8,306.8,0,0,1,60.58,233.1a256.9,256.9,0,0,1,25.012,20.032,228.132,228.132,0,0,1,28.944-19.085Q107.2,249.264,98.587,263.82a214.8,214.8,0,0,1,30.427,18.38,170.7,170.7,0,0,1-41.233-5.306A156.76,156.76,0,0,1,87.691,323.5Z" transform="translate(-21.415 -178.769)" fill="#7e50c2"/>
        </g>
      </g>
    </g>
  </g>
</svg>
